<svg width="15" height="15" viewBox="0 0 15 15" fill="none" xmlns="http://www.w3.org/2000/svg">
<g clip-path="url(#clip0_199_4)">
<path d="M1.25 2.1875C1.25 0.98125 2.23125 0 3.4375 0C4.64375 0 5.625 0.98125 5.625 2.1875C5.625 3.39375 4.64375 4.375 3.4375 4.375C2.23125 4.375 1.25 3.39375 1.25 2.1875ZM9.88 4.375C11.0862 4.375 12.0675 3.39375 12.0675 2.1875C12.0675 0.98125 11.0862 0 9.88 0C8.67375 0 7.6925 0.98125 7.6925 2.1875C7.6925 3.39375 8.67375 4.375 9.88 4.375ZM9.21437 5C9.705 5.59438 10 6.35625 10 7.1875C10 7.29313 9.99063 7.39687 9.98125 7.5H13.125V6.875C13.125 5.83938 12.2856 5 11.25 5H9.21437ZM12.5 11.25V8.75H11.25V11.25H8.75V12.5H11.25V15H12.5V12.5H15V11.25H12.5ZM6.5625 5C5.35625 5 4.375 5.98125 4.375 7.1875C4.375 8.39375 5.35625 9.375 6.5625 9.375C7.76875 9.375 8.75 8.39375 8.75 7.1875C8.75 5.98125 7.76875 5 6.5625 5ZM3.125 11.875V13.75H7.5V10H5C3.96625 10 3.125 10.8413 3.125 11.875ZM3.125 7.1875C3.125 6.35625 3.42 5.59438 3.91062 5H1.875C0.839375 5 0 5.83938 0 6.875V8.75H3.50312C3.26312 8.28063 3.125 7.75063 3.125 7.1875Z" fill="#8C8888"/>
</g>
<defs>
<clipPath id="clip0_199_4">
<rect width="15" height="15" fill="white"/>
</clipPath>
</defs>
</svg>
