<svg width="22" height="22" viewBox="0 0 22 22" fill="none" xmlns="http://www.w3.org/2000/svg">
<g clip-path="url(#clip0_77_352)">
<path d="M21.1336 6.7176C20.0714 4.19836 18.111 2.16365 15.633 1.00842C13.155 -0.146811 10.3362 -0.340153 7.72366 0.465921C5.11114 1.272 2.8913 3.01998 1.49501 5.3706C0.0987287 7.72121 -0.374396 10.5068 0.167473 13.1866C0.709342 15.8664 2.22755 18.2493 4.42741 19.8727C6.62727 21.4962 9.35186 22.2444 12.0723 21.9721C14.7928 21.6998 17.315 20.4265 19.1495 18.3993C20.984 16.372 21.9998 13.7355 21.9998 11.0015C22.0016 9.52986 21.707 8.07295 21.1336 6.7176ZM10.9998 20.9998C9.022 20.9998 7.08857 20.4133 5.44407 19.3144C3.79956 18.2155 2.51786 16.6537 1.76104 14.8264C1.00422 12.999 0.806275 10.9883 1.19225 9.04849C1.57822 7.10867 2.53077 5.32687 3.92943 3.92842C5.32809 2.52998 7.11004 1.57771 9.04992 1.19203C10.9898 0.806363 13.0005 1.00461 14.8277 1.76172C16.6549 2.51882 18.2166 3.80077 19.3152 5.44544C20.4138 7.09011 21 9.02363 20.9997 11.0015C20.9991 13.6533 19.9453 16.1963 18.07 18.0712C16.1948 19.9462 13.6516 20.9996 10.9998 20.9998Z" fill="#9C7A02"/>
<path d="M6.79045 11.3111C6.45681 14.5499 3.88679 16.2011 3.57715 16.3923L18.4438 16.2073C18.0289 15.8682 15.5959 13.8076 15.4302 10.3589C15.318 8.01882 16.308 6.29954 16.7214 5.66013L13.3928 7.72466L10.9156 3.64746L8.74815 7.90503L5.10987 6.12459C5.39629 6.44894 7.08693 8.43219 6.79045 11.3111Z" fill="url(#paint0_linear_77_352)"/>
<path d="M7.19971 11.1564L10.9154 3.87988L14.9407 10.6146L7.19971 11.1564Z" fill="url(#paint1_linear_77_352)"/>
<path d="M3.56152 16.4203C3.91993 16.2206 6.19347 14.9023 6.81275 12.0853C7.5257 8.8279 5.39228 6.42509 5.18714 6.20215L17.7276 15.9558C15.2391 16.1323 12.6588 16.2614 9.98658 16.3429C7.78503 16.4074 5.64334 16.4332 3.56152 16.4203Z" fill="#FFE278"/>
<path d="M18.1924 16.1881C16.9356 15.0733 16.0532 13.598 15.6653 11.9634C15.2774 10.3288 15.403 8.61435 16.0249 7.05371L4.18115 16.1881C6.76149 16.1695 9.34184 16.1613 11.9222 16.1634C14.0128 16.1649 16.1029 16.1732 18.1924 16.1881Z" fill="url(#paint2_linear_77_352)"/>
</g>
<defs>
<linearGradient id="paint0_linear_77_352" x1="-9.56015" y1="10.0199" x2="-9.52144" y2="10.0199" gradientUnits="userSpaceOnUse">
<stop stop-color="#FFDA4F"/>
<stop offset="0.45" stop-color="#FDD84E"/>
<stop offset="0.61" stop-color="#F6D248"/>
<stop offset="0.73" stop-color="#EBC63F"/>
<stop offset="0.82" stop-color="#DAB632"/>
<stop offset="0.9" stop-color="#C4A021"/>
<stop offset="0.97" stop-color="#A9870C"/>
<stop offset="1" stop-color="#9C7A02"/>
</linearGradient>
<linearGradient id="paint1_linear_77_352" x1="7.19971" y1="7.51817" x2="14.9407" y2="7.51817" gradientUnits="userSpaceOnUse">
<stop stop-color="#F2DE98"/>
<stop offset="1" stop-color="#E8B805"/>
</linearGradient>
<linearGradient id="paint2_linear_77_352" x1="16.5126" y1="11.6333" x2="2.50754" y2="11.9174" gradientUnits="userSpaceOnUse">
<stop offset="0.01" stop-color="#9E7C05"/>
<stop offset="0.13" stop-color="#B79A2F"/>
<stop offset="0.25" stop-color="#CEB354"/>
<stop offset="0.37" stop-color="#E0C872"/>
<stop offset="0.5" stop-color="#EDD889"/>
<stop offset="0.64" stop-color="#F7E399"/>
<stop offset="0.8" stop-color="#FDEAA3"/>
<stop offset="1" stop-color="#FFECA6"/>
</linearGradient>
<clipPath id="clip0_77_352">
<rect width="22" height="22" fill="white"/>
</clipPath>
</defs>
</svg>
