<svg width="13" height="13" viewBox="0 0 13 13" fill="none" xmlns="http://www.w3.org/2000/svg">
<g clip-path="url(#clip0_199_14)">
<path d="M5.3505 9.81609C5.98491 10.4509 7.01379 10.4512 7.64861 9.81683C7.64886 9.81657 7.64909 9.81635 7.64934 9.81609L9.38863 8.07681C9.58926 7.85492 9.57202 7.51237 9.35013 7.31174C9.14353 7.12494 8.82894 7.12527 8.62272 7.3125L7.03781 8.89797L7.04159 0.541684C7.04157 0.242506 6.79906 0 6.49991 0C6.20076 0 5.95825 0.242506 5.95825 0.541658L5.95338 8.88766L4.37713 7.3125C4.16547 7.101 3.82244 7.10112 3.61094 7.31278C3.39943 7.52444 3.39956 7.86746 3.61122 8.07897L5.3505 9.81609Z" fill="#8C8888"/>
<path d="M12.4583 8.66666C12.1592 8.66666 11.9167 8.90916 11.9167 9.20831V11.375C11.9167 11.6742 11.6742 11.9167 11.375 11.9167H1.625C1.32585 11.9167 1.08334 11.6742 1.08334 11.375V9.20834C1.08334 8.90919 0.840836 8.66668 0.541684 8.66668C0.242506 8.66666 0 8.90919 0 9.20834V11.375C0 12.2725 0.727543 13 1.625 13H11.375C12.2725 13 13 12.2725 13 11.375V9.20834C13 8.90919 12.7575 8.66666 12.4583 8.66666Z" fill="#8C8888"/>
</g>
<defs>
<clipPath id="clip0_199_14">
<rect width="13" height="13" fill="white"/>
</clipPath>
</defs>
</svg>
