<svg width="59" height="59" viewBox="0 0 59 59" fill="none" xmlns="http://www.w3.org/2000/svg">
<path d="M29.497 49.6396C39.9671 49.6396 48.4548 41.1519 48.4548 30.6818C48.4548 20.2118 39.9671 11.7241 29.497 11.7241C19.027 11.7241 10.5393 20.2118 10.5393 30.6818C10.5393 41.1519 19.027 49.6396 29.497 49.6396Z" fill="#F2F2F2" stroke="white" stroke-miterlimit="10"/>
<path d="M38.1643 26.298H32.8857V38.3895H38.1643V26.298Z" fill="#7C008A"/>
<path d="M31.9734 29.7518H26.6948V38.3894H31.9734V29.7518Z" fill="#7C008A"/>
<path d="M25.7824 32.631H20.5039V38.3894H25.7824V32.631Z" fill="#7C008A"/>
<path d="M32.003 19.0348L33.6974 19.8583C30.048 28.5077 20.6639 27.7554 20.6639 27.7554C29.8051 29.7459 33.3952 24.9828 35.6642 21.1261L37.3289 22.1213L36.4877 17.139L32.003 19.0348Z" fill="#7C008A"/>
<path d="M39.3136 39.201H19.4495V40.1608H39.3136V39.201Z" fill="#7C008A"/>
<path d="M29.4971 58.2299C45.3658 58.2299 58.2299 45.3658 58.2299 29.4971C58.2299 13.6284 45.3658 0.764282 29.4971 0.764282C13.6284 0.764282 0.764282 13.6284 0.764282 29.4971C0.764282 45.3658 13.6284 58.2299 29.4971 58.2299Z" stroke="url(#paint0_linear_467_6)" stroke-width="2.59" stroke-miterlimit="10"/>
<path d="M29.7932 7.57714C30.6112 7.57714 31.2743 6.91404 31.2743 6.09606C31.2743 5.27809 30.6112 4.61499 29.7932 4.61499C28.9752 4.61499 28.3121 5.27809 28.3121 6.09606C28.3121 6.91404 28.9752 7.57714 29.7932 7.57714Z" fill="white"/>
<path d="M29.2008 54.379C30.0188 54.379 30.6819 53.7159 30.6819 52.8979C30.6819 52.08 30.0188 51.4169 29.2008 51.4169C28.3828 51.4169 27.7197 52.08 27.7197 52.8979C27.7197 53.7159 28.3828 54.379 29.2008 54.379Z" fill="white"/>
<path d="M52.8979 28.9046C53.7159 28.9046 54.379 28.2416 54.379 27.4236C54.379 26.6056 53.7159 25.9425 52.8979 25.9425C52.08 25.9425 51.4169 26.6056 51.4169 27.4236C51.4169 28.2416 52.08 28.9046 52.8979 28.9046Z" fill="white"/>
<path d="M6.09606 28.9046C6.91404 28.9046 7.57714 28.2416 7.57714 27.4236C7.57714 26.6056 6.91404 25.9425 6.09606 25.9425C5.27809 25.9425 4.61499 26.6056 4.61499 27.4236C4.61499 28.2416 5.27809 28.9046 6.09606 28.9046Z" fill="white"/>
<defs>
<linearGradient id="paint0_linear_467_6" x1="4.88148e-05" y1="29.4971" x2="59.0001" y2="29.4971" gradientUnits="userSpaceOnUse">
<stop stop-color="white"/>
<stop offset="1" stop-color="#FFECAA"/>
</linearGradient>
</defs>
</svg>
