<svg width="33" height="25" viewBox="0 0 33 25" fill="none" xmlns="http://www.w3.org/2000/svg">
<path d="M0 2.06139C0.0966012 1.64693 0.239484 1.28028 0.418116 0.988491C0.596748 0.696706 0.806567 0.487242 1.03206 0.375578C1.36665 0.181901 1.71578 0.10258 2.06412 0.141088H4.125C10.505 0.0270111 18.3247 0.0840497 24.75 0.141088L30.9359 0.204469C31.6056 0.204469 32.4015 -0.479988 33 2.25153C32.3141 4.9577 31.625 4.1845 30.9359 4.22252L16.5 4.36195C12.5271 4.36195 8.12059 4.36195 4.125 4.29857H2.06412C1.71578 4.33708 1.36665 4.25776 1.03206 4.06408C0.806567 3.95242 0.596748 3.74297 0.418116 3.45119C0.239484 3.1594 0.0966012 2.79273 0 2.37827V2.08675V2.06139Z" fill="white"/>
<path d="M0 12.7782C0.0966012 12.3637 0.239484 11.9971 0.418116 11.7053C0.596748 11.4135 0.806567 11.204 1.03206 11.0924C1.36665 10.8987 1.71578 10.8194 2.06412 10.8579H4.125C10.505 10.7438 18.3247 10.8008 24.75 10.8579L30.9359 10.9213C31.6056 10.9213 32.4015 10.2368 33 12.9683C32.3141 15.6745 31.625 14.9013 30.9359 14.9393L16.5 15.0787C12.5271 15.0787 8.12059 15.0787 4.125 15.0154H2.06412C1.71578 15.0539 1.36665 14.9746 1.03206 14.7809C0.806567 14.6692 0.596748 14.4598 0.418116 14.168C0.239484 13.8762 0.0966012 13.5095 0 13.0951V12.8035V12.7782Z" fill="white"/>
<path d="M0 22.4233C0.0966012 22.0089 0.239484 21.6422 0.418116 21.3504C0.596748 21.0586 0.806567 20.8492 1.03206 20.7375C1.36665 20.5438 1.71578 20.4645 2.06412 20.503H4.125C10.505 20.3889 18.3247 20.446 24.75 20.503L30.9359 20.5664C31.6056 20.5664 32.4015 19.882 33 22.6135C32.3141 25.3196 31.625 24.5464 30.9359 24.5844L16.5 24.7239C12.5271 24.7239 8.12059 24.7239 4.125 24.6605H2.06412C1.71578 24.699 1.36665 24.6197 1.03206 24.426C0.806567 24.3143 0.596748 24.1049 0.418116 23.8131C0.239484 23.5213 0.0966012 23.1547 0 22.7402V22.4487V22.4233Z" fill="white"/>
</svg>
