<svg id="Layer_1" data-name="Layer 1" xmlns="http://www.w3.org/2000/svg" xmlns:xlink="http://www.w3.org/1999/xlink" viewBox="0 0 192.25 165.03"><defs><style>.cls-1{fill:url(#linear-gradient);}.cls-2{fill:url(#linear-gradient-2);}.cls-3{fill:#ffe278;}.cls-4{fill:url(#linear-gradient-3);}</style><linearGradient id="linear-gradient" x1="244.49" y1="552.32" x2="244.99" y2="552.32" gradientUnits="userSpaceOnUse"><stop offset="0" stop-color="#ffda4f"/><stop offset="0.45" stop-color="#fdd84e"/><stop offset="0.61" stop-color="#f6d248"/><stop offset="0.73" stop-color="#ebc63f"/><stop offset="0.82" stop-color="#dab632"/><stop offset="0.9" stop-color="#c4a021"/><stop offset="0.97" stop-color="#a9870c"/><stop offset="1" stop-color="#9c7a02"/></linearGradient><linearGradient id="linear-gradient-2" x1="461" y1="520" x2="561" y2="520" gradientUnits="userSpaceOnUse"><stop offset="0" stop-color="#f2de98"/><stop offset="1" stop-color="#e8b805"/></linearGradient><linearGradient id="linear-gradient-3" x1="581.3" y1="573.16" x2="400.38" y2="576.83" gradientUnits="userSpaceOnUse"><stop offset="0.01" stop-color="#9c7a02"/><stop offset="0.01" stop-color="#9e7c05"/><stop offset="0.13" stop-color="#b79a2f"/><stop offset="0.25" stop-color="#ceb354"/><stop offset="0.37" stop-color="#e0c872"/><stop offset="0.5" stop-color="#edd889"/><stop offset="0.64" stop-color="#f7e399"/><stop offset="0.8" stop-color="#fdeaa3"/><stop offset="1" stop-color="#ffeca6"/></linearGradient></defs><path class="cls-1" d="M455.71,569c-4.31,41.84-37.51,63.17-41.51,65.64l192.05-2.39c-5.36-4.38-36.79-31-38.93-75.55C565.87,526.47,578.66,504.26,584,496l-43,26.67L509,470l-28,55-47-23C437.7,506.19,459.54,531.81,455.71,569Z" transform="translate(-414 -470)"/><path class="cls-2" d="M461,567l48-94,52,87Z" transform="translate(-414 -470)"/><path class="cls-3" d="M414,635c4.63-2.58,34-19.61,42-56,9.21-42.08-18.35-73.12-21-76L597,629q-48.22,3.42-100,5Q454.34,635.25,414,635Z" transform="translate(-414 -470)"/><path class="cls-4" d="M603,632a105.52,105.52,0,0,1-28-118L422,632q50-.36,100-.32Q562.51,631.71,603,632Z" transform="translate(-414 -470)"/></svg>