<svg id="Layer_1" data-name="Layer 1" xmlns="http://www.w3.org/2000/svg" xmlns:xlink="http://www.w3.org/1999/xlink" viewBox="0 0 192.05 164.63"><defs><style>.cls-1{fill:url(#New_Gradient_Swatch);}.cls-2{fill:url(#linear-gradient);}.cls-3{fill:#ffe278;}.cls-4{fill:url(#New_Gradient_Swatch-2);}</style><linearGradient id="New_Gradient_Swatch" x1="414.2" y1="552.32" x2="606.25" y2="552.32" gradientUnits="userSpaceOnUse"><stop offset="0" stop-color="#ffda4f"/><stop offset="0.08" stop-color="#ffdc56"/><stop offset="1" stop-color="#ffeca6"/></linearGradient><linearGradient id="linear-gradient" x1="461" y1="517" x2="561" y2="517" gradientUnits="userSpaceOnUse"><stop offset="0" stop-color="#f2de98"/><stop offset="1" stop-color="#e8b805"/></linearGradient><linearGradient id="New_Gradient_Swatch-2" x1="422" y1="572.66" x2="597" y2="572.66" xlink:href="#New_Gradient_Swatch"/></defs><path class="cls-1" d="M455.71,569c-4.31,41.84-37.51,63.17-41.51,65.64l192.05-2.39c-5.36-4.38-36.79-31-38.93-75.55C565.87,526.47,578.66,504.26,584,496l-43,26.67L509,470l-28,55-47-23C437.7,506.19,459.54,531.81,455.71,569Z" transform="translate(-414.2 -470)"/><path class="cls-2" d="M461,564l48-94,52,87Z" transform="translate(-414.2 -470)"/><path class="cls-3" d="M422,632c4.34-2.44,31.23-18.15,39-52,8.13-35.4-11.18-62.22-14-66L597,629c-32.1-.73-65.47-.79-100,0Q458.45,629.89,422,632Z" transform="translate(-414.2 -470)"/><path class="cls-4" d="M597,629a96.34,96.34,0,0,1-32-48c-9.59-33.48,2.66-61.06,6-68L422,632q48.51.75,100-.32Q560.35,630.84,597,629Z" transform="translate(-414.2 -470)"/></svg>