<svg width="12" height="12" viewBox="0 0 12 12" fill="none" xmlns="http://www.w3.org/2000/svg">
<g clip-path="url(#clip0_217_2)">
<path d="M3.0145 5.58615C3.77 4.82965 5.0875 4.83065 5.843 5.58615L11.748 11.4912C11.91 11.2762 12.0005 11.0117 12.0005 10.7277V1.27115C12.0005 0.808154 11.761 0.395654 11.359 0.167154C10.954 -0.0633456 10.4725 -0.0573456 10.0715 0.181154C9.405 0.577654 7.674 1.50015 6.0005 1.50015C4.327 1.50015 2.5955 0.577654 1.929 0.181154C1.528 -0.0578456 1.0465 -0.0628456 0.6415 0.167154C0.2395 0.395654 0 0.808154 0 1.27115V8.60065L3.0145 5.58615ZM9 3.00015C9.5525 3.00015 10 3.44765 10 4.00015C10 4.55265 9.5525 5.00015 9 5.00015C8.4475 5.00015 8 4.55265 8 4.00015C8 3.44765 8.4475 3.00015 9 3.00015ZM10.838 11.9957C10.801 11.9992 10.764 12.0007 10.727 12.0007C10.5015 12.0007 10.2755 11.9397 10.071 11.8177C9.405 11.4217 7.676 10.5002 6 10.5002C4.324 10.5002 2.5945 11.4217 1.929 11.8177C1.5275 12.0572 1.046 12.0617 0.6415 11.8317C0.24 11.6032 0 11.1907 0 10.7277V10.0142L3.7215 6.29265C4.0995 5.91415 4.758 5.91515 5.136 6.29265L10.8385 11.9952L10.838 11.9957Z" fill="#8C8888"/>
</g>
<defs>
<clipPath id="clip0_217_2">
<rect width="12" height="12" fill="white"/>
</clipPath>
</defs>
</svg>
