<svg width="14" height="14" viewBox="0 0 14 14" fill="none" xmlns="http://www.w3.org/2000/svg">
<g clip-path="url(#clip0_199_8)">
<path d="M9.35842 8.16666H4.64158C3.87497 8.16758 3.14002 8.47253 2.59795 9.0146C2.05587 9.55668 1.75093 10.2916 1.75 11.0582V14H12.25V11.0582C12.2491 10.2916 11.9441 9.55668 11.4021 9.0146C10.86 8.47253 10.125 8.16758 9.35842 8.16666Z" fill="#8C8888"/>
<path d="M7 7C8.933 7 10.5 5.433 10.5 3.5C10.5 1.567 8.933 0 7 0C5.067 0 3.5 1.567 3.5 3.5C3.5 5.433 5.067 7 7 7Z" fill="#8C8888"/>
</g>
<defs>
<clipPath id="clip0_199_8">
<rect width="14" height="14" fill="white"/>
</clipPath>
</defs>
</svg>
