<svg width="60" height="16" viewBox="0 0 60 16" fill="none" xmlns="http://www.w3.org/2000/svg">
<rect x="0.5" y="0.5" width="59" height="15" rx="5.5" fill="#2C2C2C" stroke="#FFECA6"/>
<path d="M21.5774 6.81889C21.549 6.53243 21.4271 6.3099 21.2116 6.15128C20.9962 5.99266 20.7038 5.91335 20.3345 5.91335C20.0836 5.91335 19.8717 5.94886 19.6989 6.01989C19.526 6.08854 19.3935 6.18442 19.3011 6.30753C19.2112 6.43063 19.1662 6.57031 19.1662 6.72656C19.1615 6.85677 19.1887 6.97041 19.2479 7.06747C19.3094 7.16454 19.3935 7.24858 19.5 7.3196C19.6065 7.38826 19.7296 7.44863 19.8693 7.50071C20.009 7.55043 20.1581 7.59304 20.3168 7.62855L20.9702 7.7848C21.2874 7.85582 21.5786 7.95052 21.8438 8.06889C22.1089 8.18726 22.3385 8.33286 22.5327 8.50568C22.7268 8.6785 22.8771 8.8821 22.9837 9.11648C23.0926 9.35085 23.1482 9.61955 23.1506 9.92259C23.1482 10.3677 23.0346 10.7536 22.8097 11.0803C22.5871 11.4046 22.2652 11.6567 21.8438 11.8366C21.4247 12.0142 20.9193 12.103 20.3274 12.103C19.7403 12.103 19.2289 12.013 18.7933 11.8331C18.3601 11.6532 18.0215 11.3868 17.7777 11.0341C17.5362 10.679 17.4096 10.2398 17.3977 9.71662H18.8857C18.9022 9.96046 18.9721 10.1641 19.0952 10.3274C19.2206 10.4884 19.3875 10.6103 19.5959 10.6932C19.8066 10.7737 20.0445 10.8139 20.3097 10.8139C20.5701 10.8139 20.7962 10.776 20.9879 10.7003C21.1821 10.6245 21.3324 10.5192 21.4389 10.3842C21.5455 10.2493 21.5987 10.0942 21.5987 9.91903C21.5987 9.75568 21.5502 9.61837 21.4531 9.5071C21.3584 9.39583 21.2188 9.30114 21.0341 9.22301C20.8518 9.14489 20.6281 9.07386 20.3629 9.00994L19.571 8.81108C18.9579 8.66193 18.4737 8.42874 18.1186 8.11151C17.7635 7.79427 17.5871 7.36695 17.5895 6.82955C17.5871 6.3892 17.7043 6.0045 17.9411 5.67543C18.1802 5.34635 18.508 5.08949 18.9247 4.90483C19.3414 4.72017 19.8149 4.62784 20.3452 4.62784C20.8849 4.62784 21.3561 4.72017 21.7585 4.90483C22.1634 5.08949 22.4782 5.34635 22.7031 5.67543C22.928 6.0045 23.044 6.38565 23.0511 6.81889H21.5774ZM23.9078 5.99503V4.72727H29.8809V5.99503H27.6543V12H26.1344V5.99503H23.9078ZM35.3567 4.72727H36.8944V9.45028C36.8944 9.98059 36.7677 10.4446 36.5144 10.8423C36.2634 11.2401 35.9119 11.5502 35.4597 11.7727C35.0075 11.9929 34.4808 12.103 33.8794 12.103C33.2757 12.103 32.7478 11.9929 32.2956 11.7727C31.8435 11.5502 31.4919 11.2401 31.2409 10.8423C30.99 10.4446 30.8645 9.98059 30.8645 9.45028V4.72727H32.4022V9.31889C32.4022 9.59588 32.4625 9.84209 32.5833 10.0575C32.7064 10.273 32.8792 10.4422 33.1017 10.5653C33.3243 10.6884 33.5835 10.75 33.8794 10.75C34.1777 10.75 34.437 10.6884 34.6571 10.5653C34.8797 10.4422 35.0513 10.273 35.1721 10.0575C35.2952 9.84209 35.3567 9.59588 35.3567 9.31889V4.72727ZM40.7376 12H38.1594V4.72727H40.7589C41.4904 4.72727 42.1201 4.87287 42.6481 5.16406C43.176 5.45289 43.582 5.86837 43.8661 6.41051C44.1526 6.95265 44.2958 7.60133 44.2958 8.35653C44.2958 9.11411 44.1526 9.76515 43.8661 10.3097C43.582 10.8542 43.1737 11.272 42.641 11.5632C42.1107 11.8544 41.4762 12 40.7376 12ZM39.6971 10.6825H40.6737C41.1282 10.6825 41.5105 10.602 41.8207 10.4411C42.1332 10.2777 42.3675 10.0256 42.5238 9.68466C42.6824 9.34138 42.7617 8.89867 42.7617 8.35653C42.7617 7.81913 42.6824 7.37997 42.5238 7.03906C42.3675 6.69815 42.1344 6.44721 41.8242 6.28622C41.5141 6.12524 41.1317 6.04474 40.6772 6.04474H39.6971V10.6825ZM46.9725 4.72727V12H45.4348V4.72727H46.9725ZM54.9208 8.36364C54.9208 9.15672 54.7705 9.83144 54.4698 10.3878C54.1715 10.9441 53.7643 11.3691 53.2482 11.6626C52.7345 11.9538 52.1568 12.0994 51.5153 12.0994C50.869 12.0994 50.2889 11.9527 49.7752 11.6591C49.2615 11.3655 48.8555 10.9406 48.5572 10.3842C48.2589 9.82789 48.1097 9.15436 48.1097 8.36364C48.1097 7.57055 48.2589 6.89583 48.5572 6.33949C48.8555 5.78314 49.2615 5.35937 49.7752 5.06818C50.2889 4.77462 50.869 4.62784 51.5153 4.62784C52.1568 4.62784 52.7345 4.77462 53.2482 5.06818C53.7643 5.35937 54.1715 5.78314 54.4698 6.33949C54.7705 6.89583 54.9208 7.57055 54.9208 8.36364ZM53.3619 8.36364C53.3619 7.84991 53.2849 7.41667 53.131 7.06392C52.9795 6.71117 52.7653 6.44366 52.4883 6.26136C52.2113 6.07907 51.887 5.98793 51.5153 5.98793C51.1436 5.98793 50.8192 6.07907 50.5423 6.26136C50.2653 6.44366 50.0498 6.71117 49.896 7.06392C49.7444 7.41667 49.6687 7.84991 49.6687 8.36364C49.6687 8.87737 49.7444 9.31061 49.896 9.66335C50.0498 10.0161 50.2653 10.2836 50.5423 10.4659C50.8192 10.6482 51.1436 10.7393 51.5153 10.7393C51.887 10.7393 52.2113 10.6482 52.4883 10.4659C52.7653 10.2836 52.9795 10.0161 53.131 9.66335C53.2849 9.31061 53.3619 8.87737 53.3619 8.36364Z" fill="#FFECA6"/>
<g clip-path="url(#clip0_329_2)">
<path d="M6.5937 9.01348C6.32439 11.5549 4.24993 12.8506 4 13.0006L16 12.8554C15.6651 12.5894 13.7012 10.9724 13.5675 8.26636C13.4769 6.43012 14.2761 5.08103 14.6097 4.5793L11.9229 6.19929L9.92346 3L8.17391 6.34082L5.23718 4.94375C5.46837 5.19826 6.83301 6.75448 6.5937 9.01348Z" fill="url(#paint0_linear_329_2)"/>
<path d="M6.92432 8.70977L9.92354 3L13.1727 8.28458L6.92432 8.70977Z" fill="url(#paint1_linear_329_2)"/>
<path d="M4.4873 12.8403C4.75848 12.692 6.43867 11.7378 6.92417 9.68166C7.43216 7.53138 6.2256 5.90227 6.0494 5.67267L15.422 12.658C13.4162 12.6137 11.3311 12.61 9.17358 12.658C7.56775 12.6941 6.00566 12.7548 4.4873 12.8403Z" fill="#FFE278"/>
<path d="M15.422 12.658C14.4648 11.9075 13.767 10.89 13.4225 9.74238C12.8233 7.70873 13.5887 6.03346 13.7974 5.61191L4.4873 12.8402C6.50803 12.8706 8.59082 12.8641 10.7357 12.8208C12.3332 12.7868 13.8953 12.7325 15.422 12.658Z" fill="url(#paint2_linear_329_2)"/>
</g>
<defs>
<linearGradient id="paint0_linear_329_2" x1="4" y1="8.0003" x2="16" y2="8.0003" gradientUnits="userSpaceOnUse">
<stop stop-color="#FFDA4F"/>
<stop offset="0.08" stop-color="#FFDC56"/>
<stop offset="1" stop-color="#FFECA6"/>
</linearGradient>
<linearGradient id="paint1_linear_329_2" x1="6.92432" y1="5.85489" x2="13.1727" y2="5.85489" gradientUnits="userSpaceOnUse">
<stop stop-color="#F2DE98"/>
<stop offset="1" stop-color="#E8B805"/>
</linearGradient>
<linearGradient id="paint2_linear_329_2" x1="4.4873" y1="9.23579" x2="15.422" y2="9.23579" gradientUnits="userSpaceOnUse">
<stop stop-color="#FFDA4F"/>
<stop offset="0.08" stop-color="#FFDC56"/>
<stop offset="1" stop-color="#FFECA6"/>
</linearGradient>
<clipPath id="clip0_329_2">
<rect width="12" height="10" fill="white" transform="translate(4 3)"/>
</clipPath>
</defs>
</svg>
