<svg width="16" height="16" viewBox="0 0 16 16" fill="none" xmlns="http://www.w3.org/2000/svg">
<g clip-path="url(#clip0_199_11)">
<path d="M12.6667 14H3.33333C2.4496 13.9989 1.60237 13.6474 0.97748 13.0225C0.352588 12.3976 0.00105857 11.5504 0 10.6667H16C15.9989 11.5504 15.6474 12.3976 15.0225 13.0225C14.3976 13.6474 13.5504 13.9989 12.6667 14Z" fill="#8C8888"/>
<path d="M0 5.33334C0.00105857 4.44961 0.352588 3.60238 0.97748 2.97749C1.60237 2.3526 2.4496 2.00107 3.33333 2.00001H12.6667C13.5504 2.00107 14.3976 2.3526 15.0225 2.97749C15.6474 3.60238 15.9989 4.44961 16 5.33334V9.33334H0V5.33334ZM4.66667 5.66668C4.66667 5.46889 4.60802 5.27556 4.49814 5.11111C4.38826 4.94666 4.23208 4.81848 4.04935 4.7428C3.86662 4.66711 3.66556 4.64731 3.47158 4.68589C3.2776 4.72448 3.09941 4.81972 2.95956 4.95957C2.81971 5.09942 2.72447 5.2776 2.68588 5.47159C2.6473 5.66557 2.6671 5.86663 2.74279 6.04936C2.81847 6.23209 2.94665 6.38826 3.1111 6.49815C3.27555 6.60803 3.46889 6.66668 3.66667 6.66668C3.93188 6.66668 4.18624 6.56132 4.37377 6.37378C4.56131 6.18625 4.66667 5.93189 4.66667 5.66668Z" fill="#8C8888"/>
</g>
<defs>
<clipPath id="clip0_199_11">
<rect width="16" height="16" fill="white" transform="matrix(1 0 0 -1 0 16)"/>
</clipPath>
</defs>
</svg>
