<svg width="12" height="12" viewBox="0 0 12 12" fill="none" xmlns="http://www.w3.org/2000/svg">
<g clip-path="url(#clip0_199_2)">
<path d="M10.7631 4.142L6.9686 0.439496C6.6391 0.109496 6.1651 -0.0520035 5.7046 0.0139965L2.2606 0.484996C1.9871 0.522496 1.7956 0.774496 1.8331 1.048C1.8706 1.3215 2.1221 1.5125 2.3966 1.4755L5.8411 1.0045C5.9941 0.983496 6.1521 1.036 6.2666 1.1505L10.0616 4.853C10.5841 5.3755 10.6351 6.193 10.2231 6.7765C10.1061 6.543 9.9616 6.3205 9.7676 6.1265L6.0301 2.4205C5.7011 2.0915 5.2316 1.933 4.7661 1.995L1.3216 2.466C1.0946 2.497 0.917604 2.6785 0.892604 2.9065L0.510104 6.3645C0.460104 6.82 0.617104 7.2665 0.942104 7.591L4.6501 11.2675C5.1221 11.74 5.7496 11.9995 6.4171 11.9995H6.4256C7.0966 11.9975 7.7256 11.7335 8.1971 11.256L9.7806 9.652C10.2441 9.1825 10.4771 8.5725 10.4921 7.958L10.7806 7.67C11.7431 6.695 11.7376 5.114 10.7646 4.1415L10.7631 4.142ZM3.0001 5C2.7241 5 2.5001 4.776 2.5001 4.5C2.5031 3.846 3.4971 3.8465 3.5001 4.5C3.5001 4.776 3.2761 5 3.0001 5Z" fill="#8C8888"/>
</g>
<defs>
<clipPath id="clip0_199_2">
<rect width="12" height="12" fill="white"/>
</clipPath>
</defs>
</svg>
