<svg width="58" height="58" viewBox="0 0 58 58" fill="none" xmlns="http://www.w3.org/2000/svg">
<path d="M28.9971 47.6335C39.2897 47.6335 47.6335 39.2897 47.6335 28.9971C47.6335 18.7045 39.2897 10.3607 28.9971 10.3607C18.7045 10.3607 10.3607 18.7045 10.3607 28.9971C10.3607 39.2897 18.7045 47.6335 28.9971 47.6335Z" fill="#F2F2F2" stroke="white" stroke-miterlimit="10"/>
<path d="M16.6505 26.0735L17.7279 27.4654L28.438 41.3146L24.0119 26.0735H16.6505Z" fill="#3FA9F5"/>
<path d="M29.2358 41.2796L39.9227 27.4654L41.0001 26.0735H34.058L29.2358 41.2796Z" fill="#3FA9F5"/>
<path d="M36.8243 18.6947H29.131L33.8658 25.3048L36.8243 18.6947Z" fill="#3FA9F5"/>
<path d="M20.4185 18.9392L16.598 25.5027H23.7556L20.4185 18.9392Z" fill="#3FA9F5"/>
<path d="M41.0526 25.5028L37.2321 18.9451L34.2969 25.5028H41.0526Z" fill="#3FA9F5"/>
<path d="M28.5312 18.6947H20.832L24.1924 25.3048L28.5312 18.6947Z" fill="#3FA9F5"/>
<path d="M28.834 19.1256L24.6525 25.5028H33.3999L28.834 19.1256Z" fill="#3FA9F5"/>
<path d="M41.2273 25.7882L41.0642 25.5028H34.2911L37.203 18.9451L37.0516 18.6888H36.7953L33.8368 25.3048L29.0961 18.6888H28.5137L24.175 25.3048L20.8437 18.6888H20.5758L20.4302 18.9393L23.7556 25.5028H16.5981L16.4292 25.7882L16.6505 26.0735H24.0061L28.4148 41.3088L28.7991 41.8096L29.2126 41.2739L34.0348 26.0735H40.9943L41.2156 25.7882H41.2273ZM28.8399 19.1256L33.4116 25.5319H24.6758L28.8399 19.1256ZM28.8399 41.0118L24.4895 26.0852H33.5689L28.8399 41.0118Z" fill="white"/>
<path d="M28.834 41.8096L33.5747 26.0735H24.4952L28.834 41.8096Z" fill="#3FA9F5"/>
<path d="M28.997 57.2428C44.5968 57.2428 57.2428 44.5968 57.2428 28.997C57.2428 13.3973 44.5968 0.751221 28.997 0.751221C13.3973 0.751221 0.751221 13.3973 0.751221 28.997C0.751221 44.5968 13.3973 57.2428 28.997 57.2428Z" stroke="url(#paint0_linear_467_5)" stroke-width="2.59" stroke-miterlimit="10"/>
<path d="M29.2882 7.44868C30.0924 7.44868 30.7442 6.79682 30.7442 5.99271C30.7442 5.1886 30.0924 4.53674 29.2882 4.53674C28.4841 4.53674 27.8323 5.1886 27.8323 5.99271C27.8323 6.79682 28.4841 7.44868 29.2882 7.44868Z" fill="white"/>
<path d="M28.7058 53.4573C29.51 53.4573 30.1618 52.8055 30.1618 52.0014C30.1618 51.1973 29.51 50.5454 28.7058 50.5454C27.9017 50.5454 27.2499 51.1973 27.2499 52.0014C27.2499 52.8055 27.9017 53.4573 28.7058 53.4573Z" fill="white"/>
<path d="M52.0014 28.4147C52.8055 28.4147 53.4573 27.7629 53.4573 26.9588C53.4573 26.1547 52.8055 25.5028 52.0014 25.5028C51.1973 25.5028 50.5454 26.1547 50.5454 26.9588C50.5454 27.7629 51.1973 28.4147 52.0014 28.4147Z" fill="white"/>
<path d="M5.99271 28.4147C6.79682 28.4147 7.44868 27.7629 7.44868 26.9588C7.44868 26.1547 6.79682 25.5028 5.99271 25.5028C5.1886 25.5028 4.53674 26.1547 4.53674 26.9588C4.53674 27.7629 5.1886 28.4147 5.99271 28.4147Z" fill="white"/>
<defs>
<linearGradient id="paint0_linear_467_5" x1="-5.96266e-05" y1="28.997" x2="57.9999" y2="28.997" gradientUnits="userSpaceOnUse">
<stop stop-color="white"/>
<stop offset="1" stop-color="#FFECAA"/>
</linearGradient>
</defs>
</svg>
