<svg width="58" height="57" viewBox="0 0 58 57" fill="none" xmlns="http://www.w3.org/2000/svg">
<path d="M28.9971 46.8123C39.2897 46.8123 47.6335 38.6123 47.6335 28.4972C47.6335 18.382 39.2897 10.1821 28.9971 10.1821C18.7045 10.1821 10.3607 18.382 10.3607 28.4972C10.3607 38.6123 18.7045 46.8123 28.9971 46.8123Z" fill="#F2F2F2" stroke="white" stroke-miterlimit="10"/>
<path d="M35.8343 21.9495C34.6695 22.6191 33.7959 23.0255 33.1204 22.9168C33.7117 22.6921 34.2522 22.3551 34.7109 21.9249C35.1696 21.4948 35.5375 20.9799 35.7935 20.4099C35.8401 20.2954 35.479 20.1294 35.3625 20.0779C35.3343 20.0657 35.3038 20.059 35.2729 20.0584C35.242 20.0578 35.2113 20.0633 35.1826 20.0745C35.1539 20.0857 35.1277 20.1024 35.1056 20.1236C35.0835 20.1448 35.0659 20.1702 35.0539 20.1981C34.714 21.094 34.0756 21.8504 33.2426 22.3444C33.9334 21.0295 34.3098 19.577 34.3434 18.0976H23.6449C23.6449 19.7517 24.3263 22.1441 25.3921 23.2773H32.5729C32.9228 23.3782 33.2857 23.4284 33.6503 23.4262C34.5426 23.4077 35.4143 23.159 36.1779 22.705C36.2885 22.642 36.1779 22.1326 36.143 22.0411C36.1125 21.9907 36.0638 21.9533 36.0067 21.9364C35.9496 21.9194 35.8881 21.9241 35.8343 21.9495Z" fill="#7AC943"/>
<path d="M32.6662 23.7924H25.3223C23.4686 24.5157 21.8787 25.7692 20.7583 27.3907C19.6379 29.0122 19.0387 30.927 19.0383 32.887C19.0383 38.29 23.4936 38.7593 28.9913 38.7593C34.4891 38.7593 38.9502 38.29 38.9502 32.887C38.9498 30.927 38.3506 29.0122 37.2302 27.3907C36.1098 25.7692 34.5198 24.5157 32.6662 23.7924ZM31.7169 32.6638C31.6623 33.1755 31.4287 33.6527 31.0559 34.0139C30.683 34.3751 30.1941 34.5978 29.6727 34.6441V35.8975H28.4439V34.7529C27.6806 34.7075 26.9341 34.5129 26.2483 34.1805L26.7142 32.7668C27.0941 32.9576 27.4973 33.0999 27.9139 33.1904C28.5545 33.322 29.6611 33.2877 29.8067 32.6924C29.9523 32.0972 29.5562 31.8911 28.7642 31.6679C27.9721 31.4447 26.5802 30.8037 26.4346 29.7506C26.2949 28.6059 26.8248 27.7187 28.3973 27.3925V26.2077H29.6261V27.2666C30.2269 27.3011 30.8175 27.4346 31.3733 27.6615L31.0763 28.9607C30.4306 28.7455 29.7546 28.6315 29.0729 28.623C28.2575 28.6803 28.2051 29.493 28.7817 29.8536C29.4322 30.1986 30.1054 30.5007 30.7967 30.7579C31.1279 30.9472 31.393 31.2306 31.5572 31.5708C31.7214 31.9109 31.7771 32.292 31.7169 32.6638Z" fill="#7AC943"/>
<path d="M28.997 56.256C44.5968 56.256 57.2428 43.8279 57.2428 28.4972C57.2428 13.1664 44.5968 0.738342 28.997 0.738342C13.3973 0.738342 0.751221 13.1664 0.751221 28.4972C0.751221 43.8279 13.3973 56.256 28.997 56.256Z" stroke="url(#paint0_linear_467_3)" stroke-width="2.59" stroke-miterlimit="10"/>
<path d="M29.2882 7.32029C30.0924 7.32029 30.7442 6.67967 30.7442 5.88942C30.7442 5.09918 30.0924 4.45856 29.2882 4.45856C28.4841 4.45856 27.8323 5.09918 27.8323 5.88942C27.8323 6.67967 28.4841 7.32029 29.2882 7.32029Z" fill="white"/>
<path d="M29.2882 52.5357C30.0924 52.5357 30.7442 51.8951 30.7442 51.1048C30.7442 50.3146 30.0924 49.674 29.2882 49.674C28.4841 49.674 27.8323 50.3146 27.8323 51.1048C27.8323 51.8951 28.4841 52.5357 29.2882 52.5357Z" fill="white"/>
<path d="M52.0014 27.9248C52.8055 27.9248 53.4573 27.2842 53.4573 26.4939C53.4573 25.7037 52.8055 25.063 52.0014 25.063C51.1973 25.063 50.5454 25.7037 50.5454 26.4939C50.5454 27.2842 51.1973 27.9248 52.0014 27.9248Z" fill="white"/>
<path d="M5.99271 27.9248C6.79682 27.9248 7.44868 27.2842 7.44868 26.4939C7.44868 25.7037 6.79682 25.063 5.99271 25.063C5.1886 25.063 4.53674 25.7037 4.53674 26.4939C4.53674 27.2842 5.1886 27.9248 5.99271 27.9248Z" fill="white"/>
<defs>
<linearGradient id="paint0_linear_467_3" x1="-5.96266e-05" y1="28.4972" x2="57.9999" y2="28.4972" gradientUnits="userSpaceOnUse">
<stop stop-color="white"/>
<stop offset="1" stop-color="#FFECAA"/>
</linearGradient>
</defs>
</svg>
