<svg width="28" height="32" viewBox="0 0 28 32" fill="none" xmlns="http://www.w3.org/2000/svg">
<g clip-path="url(#clip0_148_488)">
<path d="M17.8355 0C23.8428 0 28.0173 4.46692 28.0173 10.51V11.1143C28.0173 17.1609 23.8568 21.6738 17.8355 21.6738H10.2132V32H-0.00372314V0H17.8355ZM4.56054 6.5873V17.5426C5.26274 17.6733 6.23879 17.7369 7.01822 17.1892C8.33484 16.2668 7.72042 14.5528 9.1248 12.595C10.3045 10.9659 12.0986 10.2697 12.2847 10.4747C12.4041 10.6089 11.8458 11.1108 11.5825 12.2416C11.5825 12.2982 11.2876 13.5209 11.5825 13.6552C11.8774 13.7895 12.3409 13.0368 12.9869 12.2416C13.8611 11.1815 15.7957 8.76776 16.4978 9.06108C17.2 9.35439 15.9607 11.6939 16.8489 14.0086C17.5792 15.9099 19.3909 16.9665 20.711 17.5426V6.5873H4.56054Z" fill="white"/>
</g>
<defs>
<clipPath id="clip0_148_488">
<rect width="28" height="32" fill="white"/>
</clipPath>
</defs>
</svg>
